<?xml version="1.0" encoding="UTF-8" standalone="no"?>
<!-- Created with Inkscape (http://www.inkscape.org/) -->

<svg
   xmlns:dc="http://purl.org/dc/elements/1.1/"
   xmlns:cc="http://creativecommons.org/ns#"
   xmlns:rdf="http://www.w3.org/1999/02/22-rdf-syntax-ns#"
   xmlns:svg="http://www.w3.org/2000/svg"
   xmlns="http://www.w3.org/2000/svg"
   xmlns:sodipodi="http://sodipodi.sourceforge.net/DTD/sodipodi-0.dtd"
   xmlns:inkscape="http://www.inkscape.org/namespaces/inkscape"
   version="1.1"
   id="svg2"
   width="512"
   height="512"
   viewBox="0 0 512 512"
   sodipodi:docname="logo.svg"
   inkscape:version="0.92.4 (5da689c313, 2019-01-14)"
   inkscape:export-filename="/home/dhsrocha/Workspace/dhsrocha.github.io/assets/logo.png"
   inkscape:export-xdpi="96"
   inkscape:export-ydpi="96">
  <metadata
     id="metadata8">
    <rdf:RDF>
      <cc:Work
         rdf:about="">
        <dc:format>image/svg+xml</dc:format>
        <dc:type
           rdf:resource="http://purl.org/dc/dcmitype/StillImage" />
        <dc:title />
      </cc:Work>
    </rdf:RDF>
  </metadata>
  <defs
     id="defs6" />
  <sodipodi:namedview
     pagecolor="#ffffff"
     bordercolor="#666666"
     borderopacity="1"
     objecttolerance="10"
     gridtolerance="10"
     guidetolerance="10"
     inkscape:pageopacity="0"
     inkscape:pageshadow="2"
     inkscape:window-width="1920"
     inkscape:window-height="1019"
     id="namedview4"
     showgrid="false"
     inkscape:zoom="1"
     inkscape:cx="141.70581"
     inkscape:cy="310.41429"
     inkscape:window-x="0"
     inkscape:window-y="0"
     inkscape:window-maximized="1"
     inkscape:current-layer="layer1"
     inkscape:pagecheckerboard="true"
     borderlayer="false"
     showborder="true"
     showguides="true"
     inkscape:guide-bbox="true" />
  <g
     inkscape:groupmode="layer"
     id="layer1"
     inkscape:label="FG">
    <g
       id="g909"
       transform="matrix(0.91443902,0,0,0.91443902,21.903609,21.90361)">
      <path
         id="path1057"
         d="m 128.52545,487.79005 -7.46123,-3.88371 2.56881,-5.05168 c 1.41284,-2.77844 2.76154,-5.27535 2.99711,-5.5487 0.38442,-0.44608 16.32242,7.13987 17.79242,8.46857 1.50777,1.36284 -3.61068,10.03715 -5.88428,9.97215 -1.40338,-0.0401 -5.90915,-1.82061 -10.01283,-3.95663 z"
         style="display:inline;fill:#6f8a91;stroke-width:1.5666666"
         inkscape:connector-curvature="0" />
      <path
         id="path1055"
         d="m 154.78668,478.67451 c -6.03167,-1.98272 -18.86925,-6.88616 -28.52796,-10.89658 -9.65872,-4.0104 -18.98186,-7.29164 -20.7181,-7.29164 -2.64227,0 -7.937277,-6.71464 -7.937277,-10.0653 0,-1.58857 9.287707,-5.60137 12.964467,-5.60137 4.54653,0 20.4152,5.32653 44.10293,14.80372 9.80106,3.92129 19.47667,7.13408 21.50136,7.13952 2.44809,0.006 4.58,1.58929 6.36424,4.72475 3.38555,5.94943 2.32714,8.75499 -3.76232,9.97288 -7.79133,1.55826 -12.39988,1.02301 -23.98734,-2.78598 z"
         style="display:inline;fill:#6f8a91;stroke-width:1.5666666"
         inkscape:connector-curvature="0" />
      <path
         id="path1053"
         d="m 170.45335,456.61136 c -3.44667,-1.09917 -16.36435,-6.02015 -28.70596,-10.93554 -12.34161,-4.91537 -23.26911,-8.62063 -24.28334,-8.23388 -1.01422,0.38673 -3.07049,-1.68738 -4.56949,-4.60913 l -2.72544,-5.3123 5.07544,-3.13534 c 6.55015,-4.04634 12.44556,-3.15937 34.05879,5.12414 9.0475,3.46757 22.93122,8.50717 30.85272,11.19914 12.23952,4.15938 14.693,5.57314 16.33542,9.41291 1.68709,3.94424 1.56081,4.79034 -0.99383,6.65834 -3.59589,2.62938 -16.54436,2.54235 -25.04431,-0.16834 z"
         style="display:inline;fill:#6f8a91;stroke-width:1.5666666"
         inkscape:connector-curvature="0" />
      <path
         id="path1051"
         d="m 254.91083,455.06412 c -0.31561,-0.8953 -4.12172,-11.0659 -8.458,-22.60131 l -7.88414,-20.97349 1.57748,-13.49318 c 0.86762,-7.42125 2.35822,-19.30943 3.31248,-26.41818 l 1.73501,-12.925 h 13.68757 c 42.94399,0 84.09929,-25.6808 104.72929,-65.35081 9.25201,-17.79097 13.03968,-33.2992 13.17317,-53.93615 0.13442,-20.78904 -3.06114,-35.00262 -12.10245,-53.82971 -35.808,-74.56448 -135.60529,-91.454479 -194.19384,-32.86594 -24.79786,24.79788 -36.61211,56.0914 -34.85287,92.31817 1.24713,25.68116 9.21095,47.13389 25.40131,68.4254 l 5.50866,7.24432 -19.19557,17.98212 -19.19558,17.9821 -21.93334,6.50551 c -12.063334,3.57803 -22.741613,6.50239 -23.72951,6.49858 -0.987896,-0.003 -5.106841,-5.31868 -9.15321,-11.8108 -8.614825,-13.82192 -9.439886,-11.04071 9.987883,-33.66838 7.009859,-8.16443 12.535392,-15.54941 12.278964,-16.41108 -6.115825,-20.55073 -10.026142,-30.55 -11.946905,-30.55 -1.244715,0 -11.652458,-2.24552 -23.128318,-4.99004 -14.582983,-3.4876 -21.071725,-5.72818 -21.551136,-7.44166 -0.377266,-1.3484 -0.912099,-7.99232 -1.188518,-14.76428 l -0.502584,-12.31264 21.780369,-8.05403 c 11.979203,-4.4297 22.297185,-9.11151 22.928848,-10.40401 0.631663,-1.2925 2.392228,-9.02698 3.912368,-17.18772 L 88.672149,187.1942 71.045278,170.58865 53.418406,153.98308 59.861693,141.16802 c 3.543807,-7.04828 7.316668,-12.8023 8.384135,-12.78671 1.067466,0.0157 11.758036,1.7306 23.756821,3.81111 l 21.815981,3.78275 10.30069,-11.04604 c 5.66538,-6.07533 10.8815,-12.24805 11.59138,-13.71718 0.8421,-1.74274 -0.92758,-10.01645 -5.09166,-23.80496 -3.5103,-11.623606 -6.37325,-21.794625 -6.36212,-22.602265 0.0111,-0.80764 5.36647,-4.947034 11.90077,-9.198652 8.31231,-5.408506 12.49895,-7.290649 13.93958,-6.266666 1.13248,0.804951 9.57075,7.709944 18.75172,15.344428 l 16.69269,13.880879 8.90582,-3.19216 c 4.89822,-1.755689 11.9021,-3.975509 15.56418,-4.932933 3.66208,-0.957423 6.65108,-2.594847 6.64223,-3.638718 -0.009,-1.043872 2.27223,-11.526409 5.0691,-23.294525 l 5.08522,-21.396579 5.50589,-0.91118 c 3.02824,-0.501148 9.75535,-0.918938 14.94913,-0.928421 l 9.44324,-0.01724 5.30742,14.491666 c 2.91907,7.970417 6.83748,18.018603 8.70758,22.329303 l 3.40015,7.837637 16.44683,2.921962 16.44685,2.921962 13.18568,-13.765595 c 7.25212,-7.571076 14.41943,-15.056646 15.92735,-16.634599 3.66332,-3.833468 4.36153,-3.729948 17.7754,2.635481 13.45625,6.385549 12.9735,4.691873 8.44247,29.619267 -4.53826,24.967142 -4.91486,23.55608 9.58959,35.930768 14.38103,12.26937 9.46756,11.95352 41.15366,2.64553 9.36987,-2.75245 17.56166,-4.42222 18.20396,-3.71059 0.64232,0.71163 4.41382,6.19379 8.38113,12.18258 6.10369,9.21373 6.90048,11.26219 5.17981,13.31666 -1.1184,1.33539 -8.06843,9.58807 -15.4445,18.33931 l -13.41104,15.91133 5.15842,15.4042 5.15844,15.4042 23.25215,5.52418 23.25217,5.52417 1.20328,13.26505 c 0.66181,7.29578 0.88742,14.08819 0.50137,15.09425 -0.38608,1.00607 -3.39505,2.70239 -6.68663,3.76961 -3.29158,1.06721 -13.09137,4.66921 -21.77731,8.00444 l -15.79263,6.06403 -3.55487,16.82828 -3.55488,16.82825 17.55428,16.54806 17.55428,16.54806 -6.44926,12.82694 c -3.54709,7.05482 -7.32265,12.81881 -8.39011,12.80888 -1.06746,-0.009 -11.81085,-1.70927 -23.87418,-3.7763 l -21.93334,-3.75819 -3.88146,4.95127 c -2.1348,2.7232 -7.28094,8.58129 -11.43585,13.01797 l -7.55441,8.06667 6.34419,21.20748 c 3.48931,11.66412 6.3442,22.20692 6.3442,23.42847 0,2.26164 -20.45705,16.78069 -23.64366,16.78069 -0.96136,0 -8.54855,-5.75515 -16.86045,-12.78923 -8.31191,-7.03407 -16.20709,-13.71485 -17.54484,-14.84616 -2.03955,-1.72481 -4.89254,-1.24655 -17.66877,2.96186 -17.42058,5.73822 -15.03142,2.13224 -22.31936,33.68659 -4.6138,19.97624 -3.16006,18.70492 -22.38059,19.57215 -7.03248,0.31731 -11.7583,-0.11484 -12.10818,-1.10738 z"
         style="display:inline;fill:#53676c;stroke-width:1.5666666"
         inkscape:connector-curvature="0" />
      <path
         id="path1049"
         d="m 181.42001,433.98846 c -5.17,-1.52605 -18.31946,-6.41082 -29.22103,-10.85506 -10.90157,-4.44424 -21.12407,-8.08491 -22.71667,-8.09034 -1.5926,-0.005 -4.09019,-2.1093 -5.55019,-4.6752 -2.37078,-4.16655 -2.40094,-4.91893 -0.28212,-7.03775 6.37623,-6.37623 13.87898,-5.18716 46.02001,7.2935 13.35584,5.18619 26.7284,10.14253 29.71682,11.01408 9.47952,2.76463 12.73329,11.04446 5.43119,13.82071 -5.68853,2.16278 -12.55153,1.73162 -23.39801,-1.46994 z"
         style="display:inline;fill:#6f8a91;stroke-width:1.5666666"
         inkscape:connector-curvature="0" />
      <path
         id="path1047"
         d="m 196.83695,412.66829 c -4.44568,-1.19816 -17.62205,-6.08677 -29.2808,-10.86357 -11.65876,-4.7768 -22.82638,-8.6906 -24.81694,-8.69732 -3.39296,-0.0115 -7.53586,-5.56458 -7.53586,-10.101 0,-2.84457 9.36901,-5.97016 15.45051,-5.15446 3.18481,0.42717 18.10757,5.39693 33.1617,11.0439 15.05411,5.64697 28.78112,10.49371 30.50445,10.77051 3.74655,0.60177 8.88872,8.1547 7.68591,11.28921 -1.71955,4.48106 -12.24071,5.19701 -25.16897,1.71273 z"
         style="display:inline;fill:#6f8a91;stroke-width:1.5666666"
         inkscape:connector-curvature="0" />
      <path
         id="path1045"
         d="m 183.38532,382.05601 -9.00136,-4.64623 31.25266,-62.25341 c 17.18897,-34.23938 31.89389,-63.19567 32.6776,-64.34731 1.14611,-1.68415 3.07654,-1.26408 9.86536,2.1468 4.64224,2.3324 8.77686,4.55108 9.18806,4.93041 0.83837,0.77344 -62.96949,128.80183 -64.19763,128.81047 -0.43083,0.003 -4.83395,-2.08529 -9.78469,-4.64073 z"
         style="display:inline;fill:#535d6c;stroke-width:1.5666666"
         inkscape:connector-curvature="0" />
      <path
         id="path1025"
         d="m 248.77217,338.04392 c 0.009,-2.14996 0.41335,-6.30775 0.8994,-9.23952 l 0.88368,-5.33049 h 9.49383 c 34.91224,0 68.21545,-25.17753 79.21226,-59.88513 8.7816,-27.71609 2.38637,-59.81706 -16.20113,-81.322 -22.09578,-25.56385 -55.45671,-36.20687 -87.711,-27.98212 -16.09274,4.10361 -27.04103,10.41884 -39.4064,22.73052 -17.48877,17.41286 -25.59985,36.83209 -25.59985,61.29022 0,19.06132 5.52829,36.05145 16.31495,50.14074 2.7888,3.64269 5.07055,7.18014 5.07055,7.861 0,0.68087 -2.81938,3.54134 -6.2653,6.35664 l -6.26531,5.11869 -5.82434,-7.69137 c -27.10927,-35.7993 -28.55038,-83.7854 -3.63734,-121.11616 40.51122,-60.70372 127.42043,-63.0403 172.49423,-4.63754 14.37918,18.63131 19.91278,36.50538 19.7668,63.8486 -0.0886,16.58762 -0.59458,20.66755 -3.73153,30.08766 -5.23511,15.72075 -12.89728,28.46124 -24.33946,40.47108 -20.27392,21.27978 -47.58333,33.20822 -76.0281,33.20822 -9.02602,0 -9.14144,-0.0495 -9.12594,-3.90904 z"
         style="display:inline;fill:#535d6c;stroke-width:1.42358112"
         inkscape:connector-curvature="0" />
    </g>
  </g>
</svg>
