<?xml version="1.0" encoding="UTF-8" standalone="no"?>
<!-- Created with Inkscape (http://www.inkscape.org/) -->

<svg
   xmlns:dc="http://purl.org/dc/elements/1.1/"
   xmlns:cc="http://creativecommons.org/ns#"
   xmlns:rdf="http://www.w3.org/1999/02/22-rdf-syntax-ns#"
   xmlns:svg="http://www.w3.org/2000/svg"
   xmlns="http://www.w3.org/2000/svg"
   xmlns:sodipodi="http://sodipodi.sourceforge.net/DTD/sodipodi-0.dtd"
   xmlns:inkscape="http://www.inkscape.org/namespaces/inkscape"
   version="1.1"
   id="svg2"
   width="512"
   height="512"
   viewBox="0 0 512 512"
   sodipodi:docname="logo.svg"
   inkscape:version="0.92.4 (5da689c313, 2019-01-14)"
   inkscape:export-filename="/home/dhsrocha/Workspace/dhsrocha.github.io/assets/logo.png"
   inkscape:export-xdpi="96"
   inkscape:export-ydpi="96">
  <metadata
     id="metadata8">
    <rdf:RDF>
      <cc:Work
         rdf:about="">
        <dc:format>image/svg+xml</dc:format>
        <dc:type
           rdf:resource="http://purl.org/dc/dcmitype/StillImage" />
        <dc:title />
      </cc:Work>
    </rdf:RDF>
  </metadata>
  <defs
     id="defs6" />
  <sodipodi:namedview
     pagecolor="#ffffff"
     bordercolor="#666666"
     borderopacity="1"
     objecttolerance="10"
     gridtolerance="10"
     guidetolerance="10"
     inkscape:pageopacity="0"
     inkscape:pageshadow="2"
     inkscape:window-width="1920"
     inkscape:window-height="1019"
     id="namedview4"
     showgrid="false"
     inkscape:zoom="1"
     inkscape:cx="208.51403"
     inkscape:cy="287.29342"
     inkscape:window-x="0"
     inkscape:window-y="0"
     inkscape:window-maximized="1"
     inkscape:current-layer="layer2"
     inkscape:pagecheckerboard="true"
     borderlayer="false"
     showborder="false"
     showguides="true"
     inkscape:guide-bbox="true" />
  <g
     inkscape:groupmode="layer"
     id="layer2"
     inkscape:label="FG"
     style="display:inline">
    <g
       id="g923"
       transform="translate(2e-6)">
      <path
         inkscape:connector-curvature="0"
         id="path8793"
         d="m 272.54297,91.664062 c -1.45833,0 -4.83073,0.09115 -10.11719,0.273438 -5.10417,0 -11.21094,0.09114 -18.32031,0.273438 -6.92709,0 -14.3099,0.09114 -22.14844,0.273437 -7.83854,0.182291 -15.13021,0.364583 -21.875,0.546875 -6.74479,0.182291 -12.39584,0.273438 -16.95312,0.273438 h -8.20313 l -79.296874,-1.09375 v 17.500002 c 8.567714,1.09374 14.947914,1.91404 19.140624,2.46094 4.375,0.54686 7.47396,1.0026 9.29688,1.36718 1.82291,0.36459 2.82552,0.72917 3.00781,1.09375 0.36458,0.36459 0.91146,0.91146 1.64062,1.64063 0.45573,0.45573 0.88868,1.5039 1.29883,3.14453 0.41016,1.64062 0.79753,3.8737 1.16211,6.69922 0.72917,5.46874 1.27604,12.30468 1.64063,20.50781 0.36458,8.02083 0.63802,16.86198 0.82031,26.52344 0.36458,9.66145 0.54687,19.04947 0.54687,28.16406 0.1823,9.11458 0.27344,17.40885 0.27344,24.88281 v 53.04688 c 0,22.60416 -0.27344,41.74479 -0.82031,57.42187 -0.36459,15.4948 -0.91146,28.07292 -1.64063,37.73438 -1.45833,1.09374 -3.1901,2.27865 -5.19531,3.55468 -2.00521,1.27605 -4.01042,2.46095 -6.01562,3.55469 -2.00522,1.09376 -3.91928,2.18751 -5.74219,3.28125 -1.82292,1.09376 -3.3724,2.00521 -4.64844,2.73438 v 10.66406 l 66.44531,-1.36719 64.80469,1.36719 c 7.47396,-0.0912 14.6289,-0.3418 21.46485,-0.75195 6.83593,-0.41016 13.35286,-0.97982 19.55078,-1.70899 6.28906,-0.82031 12.30468,-1.82292 18.04687,-3.00781 5.74219,-1.18489 11.21094,-2.55209 16.40625,-4.10156 5.24089,-1.64063 10.37826,-3.53809 15.41406,-5.69141 5.03581,-2.15332 9.97007,-4.5625 14.80078,-7.22851 4.83073,-2.66602 9.55795,-5.58887 14.1836,-8.76758 4.62565,-3.17871 9.14974,-6.61328 13.57031,-10.30469 4.60287,-3.78255 8.94271,-7.764 13.02149,-11.94531 4.07877,-4.18132 7.89648,-8.5625 11.45117,-13.14258 3.55469,-4.58008 6.84635,-9.35905 9.87695,-14.33789 3.0306,-4.97884 5.80013,-10.15755 8.30664,-15.53516 1.25326,-2.6888 2.42879,-5.43042 3.52539,-8.22461 1.0966,-2.79419 2.11475,-5.64144 3.05469,-8.54101 0.93994,-2.89958 1.8007,-5.85051 2.58398,-8.85547 0.78329,-3.00497 1.48861,-6.06348 2.11524,-9.17383 0.62663,-3.11035 1.17456,-6.27254 1.64453,-9.48828 0.46997,-3.21574 0.86247,-6.48551 1.17578,-9.80664 0.62663,-6.64225 0.93945,-13.49478 0.93945,-20.5586 0,-5.33203 -0.21744,-10.58951 -0.65039,-15.77343 -0.43294,-5.18392 -1.08138,-10.29427 -1.94726,-15.33008 -0.86589,-5.03581 -1.94922,-9.99707 -3.24805,-14.88477 -1.29883,-4.88769 -2.81315,-9.70182 -4.54492,-14.4414 -1.00261,-2.73438 -2.13151,-5.41699 -3.38477,-8.04883 -1.25325,-2.63184 -2.63086,-5.21289 -4.13476,-7.74219 -1.50391,-2.5293 -3.13412,-5.00683 -4.88867,-7.43359 -1.75456,-2.42676 -3.63347,-4.80274 -5.63868,-7.12695 -1.95963,-2.36979 -4.03938,-4.66081 -6.23828,-6.8711 -2.19889,-2.21028 -4.51692,-4.33984 -6.95508,-6.39062 -2.43815,-2.05078 -4.99641,-4.02279 -7.67382,-5.91407 -2.67741,-1.89127 -5.47396,-3.70182 -8.39063,-5.43359 -2.91667,-1.82292 -5.94726,-3.48633 -9.0918,-4.99023 -3.14453,-1.50391 -6.40299,-2.84831 -9.77539,-4.03321 -3.28125,-1.27604 -6.722,-2.41536 -10.32226,-3.417966 -3.60026,-1.002604 -7.36003,-1.86849 -11.2793,-2.597656 -3.69141,-0.820313 -7.75358,-1.539063 -12.18555,-2.154297 -4.43196,-0.615235 -9.23372,-1.126953 -14.40625,-1.53711 -5.17252,-0.410156 -10.71582,-0.71875 -16.6289,-0.923828 -5.91309,-0.205078 -12.19597,-0.306641 -18.84961,-0.306641 z m -58.24219,58.515628 h 4.375 c 7.10938,0 13.74024,0.1595 19.89258,0.47851 6.15234,0.31901 11.82617,0.79753 17.02148,1.43555 5.28646,0.63802 10.07162,1.38997 14.35547,2.25586 4.28386,0.86588 8.06641,1.8457 11.34766,2.93945 3.00781,1.09375 5.92448,2.36979 8.75,3.82813 2.82552,1.45833 5.5599,3.09896 8.20312,4.92187 2.64323,1.82292 5.12696,3.78255 7.45118,5.87891 2.32422,2.09635 4.48893,4.32942 6.49414,6.69922 h -0.27344 c 2.1875,2.6888 4.21549,5.47493 6.08398,8.35742 1.86849,2.88249 3.57748,5.86133 5.12696,8.9375 1.54948,3.07617 2.93945,6.24967 4.16992,9.51953 1.23047,3.26986 2.30143,6.63607 3.21289,10.09961 0.95703,3.46354 1.79394,6.97884 2.51172,10.54492 0.71777,3.56608 1.3164,7.18294 1.79492,10.85156 0.47852,3.66862 0.83691,7.389 1.07617,11.16016 0.23926,3.77116 0.35938,7.5931 0.35938,11.4668 v 2.46093 c 0,3.60028 -0.0912,7.13217 -0.27344,10.59571 -0.18229,3.46354 -0.45573,6.85872 -0.82031,10.18555 -0.36459,3.32681 -0.82032,6.58528 -1.36719,9.77539 -0.54688,3.1901 -1.1849,6.31185 -1.91406,9.36523 -0.77474,3.28125 -1.62826,6.46517 -2.5625,9.55273 -0.93425,3.08757 -1.94922,6.07878 -3.04297,8.97266 -1.09375,2.89388 -2.26628,5.69043 -3.51953,8.39063 -1.25326,2.70019 -2.58724,5.30403 -4,7.81054 -2.46094,2.3698 -4.99024,4.53451 -7.58789,6.49414 -2.59766,1.95964 -5.26368,3.7142 -7.99805,5.26368 -2.73438,1.45833 -5.62826,2.80273 -8.68164,4.0332 -3.05339,1.23047 -6.26628,2.347 -9.63867,3.34961 h 0.27343 c -3.46354,1.0026 -7.0638,1.86849 -10.80078,2.59765 -3.73698,0.72917 -7.61067,1.32162 -11.62109,1.77735 -3.91927,0.36458 -8.02083,0.63802 -12.30469,0.82031 -4.28385,0.18229 -8.75,0.27344 -13.39844,0.27344 -4.55728,0 -9.02343,-0.0911 -13.39843,-0.27344 -4.375,-0.18229 -8.84115,-0.54688 -13.39844,-1.09375 -0.54687,-7.83854 -0.91146,-17.86458 -1.09375,-30.07813 -0.18229,-12.39583 -0.27344,-27.16146 -0.27344,-44.29687 v -50.3125 c 0,-17.68229 0.0684,-33.58724 0.20508,-47.71484 0.13672,-14.12761 0.3418,-26.47787 0.61523,-37.05079 1.64063,-0.18228 3.19011,-0.27343 4.64844,-0.27343 z"
         style="display:inline;opacity:1;vector-effect:none;fill:#ffffff;fill-opacity:1;stroke:none;stroke-width:1.23612726;stroke-linecap:butt;stroke-linejoin:miter;stroke-miterlimit:4;stroke-dasharray:none;stroke-dashoffset:0;stroke-opacity:1" />
      <g
         id="text4676"
         style="font-style:normal;font-weight:normal;font-size:600px;line-height:1.25;font-family:sans-serif;letter-spacing:0px;word-spacing:0px;fill:#333333;fill-opacity:1;stroke:none"
         aria-label="D">
        <path
           inkscape:connector-curvature="0"
           id="path4756"
           style="font-style:normal;font-variant:normal;font-weight:normal;font-stretch:normal;font-size:560px;font-family:'UKIJ Kawak 3D';-inkscape-font-specification:'UKIJ Kawak 3D';text-align:center;text-anchor:middle;fill:#333333"
           d="m 208.83203,285.53125 q 0,25.70312 0.27344,44.29687 0.27344,18.32032 1.09375,30.07813 6.83594,0.82031 13.39844,1.09375 6.5625,0.27344 13.39843,0.27344 13.94532,0 25.70313,-1.09375 12.03125,-1.36719 22.42187,-4.375 h -0.27343 q 10.11718,-3.00782 18.32031,-7.38282 8.20312,-4.64843 15.58594,-11.75781 8.47656,-15.03906 13.125,-34.72656 4.375,-18.32031 4.375,-39.92188 v -2.46093 q 0,-23.24219 -5.74219,-44.02344 -5.46875,-20.78125 -18.59375,-36.91406 h 0.27344 q -6.01563,-7.10938 -13.94532,-12.57813 -7.92968,-5.46875 -16.95312,-8.75 -9.84375,-3.28125 -25.70313,-5.19531 -15.58593,-1.91406 -36.91406,-1.91406 h -4.375 q -2.1875,0 -4.64844,0.27343 -0.82031,31.71875 -0.82031,84.76563 z m 237.07031,-58.51563 q 0,37.73438 -11.21093,68.08594 -11.21094,30.07813 -31.99219,53.04688 -7.10938,11.75781 -16.13281,21.875 -9.02344,9.84375 -19.41407,18.59375 -14.49218,11.75781 -30.07812,20.23437 -15.58594,8.47656 -32.26563,13.94531 -16.95312,5.19532 -36.64062,7.65625 -19.6875,2.46094 -42.92969,2.73438 l -64.80469,-1.36719 -79.570309,1.64063 v -31.71875 q 0.820313,0 2.460938,-1.09375 1.640625,-1.09375 3.554687,-2.1875 2.1875,-1.36719 4.101563,-2.46094 1.914062,-1.09375 2.734375,-1.64063 l -0.546875,0.54688 q 1.367187,-0.82031 2.1875,-1.36719 1.09375,-0.54687 1.914062,-1.09375 v -12.57812 q 0.546875,-0.27344 2.1875,-1.09375 1.914059,-1.09375 4.101559,-2.46094 0.54688,-13.94531 0.82032,-32.26563 0.54687,-18.32031 0.54687,-42.92968 v -81.75782 q 0,-12.30468 -0.27344,-24.88281 0,-12.85156 -0.27343,-22.96875 -0.27344,-10.39062 -0.54688,-16.95312 0,-6.5625 -0.54687,-6.83594 l -0.82032,-0.82031 q 0,0.27343 -0.54687,0.27343 -0.54688,0.27344 -1.09375,0.27344 -1.367189,0 -3.554689,-0.27344 -3.828125,-0.27343 -11.210937,-1.09375 -7.382813,-1.09375 -19.960938,-2.46093 V 100.6875 l 16.40625,0.27344 V 78.8125 l 92.695314,1.367187 h 10.66406 q 4.375,0 10.11719,0 5.74219,-0.273437 12.03125,-0.546875 9.84375,-0.273437 20.23437,-0.273437 10.66407,-0.273438 19.6875,-0.273438 9.29688,-0.273437 15.85938,-0.273437 6.83594,-0.273438 8.75,-0.273438 20.50781,0 36.64062,1.367188 16.40625,1.09375 28.16407,3.554687 h -0.27344 q 13.125,3.007813 24.0625,7.109375 11.21094,3.828125 21.05469,9.843748 h -0.27344 q 19.41406,11.75782 32.53906,27.61719 13.125,15.58594 20.23438,34.17969 11.21093,30.35156 11.21093,64.80468 z m -248.00781,144.375 Q 196.80078,361 196.25391,339.94531 q -0.54688,-21.32812 -0.54688,-54.41406 v -50.3125 q 0,-43.75 0.54688,-72.46094 0.54687,-28.98437 1.64062,-44.57031 10.66406,-1.64062 19.6875,-2.1875 9.29688,-0.82031 17.5,-0.82031 45.11719,0 66.99219,7.92969 22.14844,7.92968 36.64062,25.42968 14.49219,17.77344 20.78125,41.01563 6.28907,22.96875 6.28907,48.125 v 2.1875 q 0,26.52343 -6.01563,48.94531 -6.5625,23.24219 -18.32031,40.46875 -5.74219,8.47656 -11.75781,14.76562 -5.74219,6.28907 -12.03125,10.9375 -6.28907,4.375 -13.67188,7.65625 -7.10937,3.28125 -15.3125,5.74219 -21.875,6.01563 -51.67969,6.01563 -9.57031,0 -19.14062,-0.54688 -9.29688,-0.82031 -19.96094,-2.46094 z m -21.05469,25.42969 64.80469,1.36719 q 22.42188,-0.27344 41.01563,-2.46094 18.86718,-2.46094 34.45312,-7.10937 31.44531,-9.84375 57.96875,-31.99219 27.61719,-22.69531 42.65625,-54.96094 15.03906,-32.26562 15.03906,-74.64844 0,-31.99218 -10.39062,-60.42968 -6.01563,-16.40625 -18.04688,-30.35157 -11.75781,-14.21874 -29.25781,-24.60937 -8.75,-5.46875 -18.86719,-9.02344 -9.84375,-3.828123 -21.60156,-6.015623 -22.14844,-4.921875 -62.07031,-4.921875 -2.1875,0 -10.11719,0.273438 -7.65625,0 -18.32031,0.273437 -10.39063,0 -22.14844,0.273438 -11.75781,0.273437 -21.875,0.546875 -10.11719,0.273437 -16.95312,0.273437 h -8.20313 l -79.296874,-1.09375 v 17.500003 q 12.851564,1.64062 19.140624,2.46094 6.5625,0.82031 9.29688,1.36718 2.73437,0.54688 3.00781,1.09375 0.54687,0.54688 1.64062,1.64063 1.36719,1.36719 2.46094,9.84375 1.09375,8.20312 1.64063,20.50781 0.54687,12.03125 0.82031,26.52344 0.54687,14.49218 0.54687,28.16406 0.27344,13.67187 0.27344,24.88281 v 53.04688 q 0,33.90625 -0.82031,57.42187 -0.54688,23.24219 -1.64063,37.73438 -2.1875,1.64062 -5.19531,3.55468 -3.00781,1.91407 -6.01562,3.55469 -3.00782,1.64063 -5.74219,3.28125 -2.73438,1.64063 -4.64844,2.73438 v 10.66406 z" />
      </g>
    </g>
    <g
       transform="translate(0,-2e-6)"
       aria-label="D"
       style="font-style:normal;font-weight:normal;font-size:600px;line-height:1.25;font-family:sans-serif;letter-spacing:0px;word-spacing:0px;display:inline;fill:#333333;fill-opacity:1;stroke:none"
       id="text4676-9-2" />
  </g>
</svg>
