<?xml version="1.0" encoding="UTF-8" standalone="no"?>
<!-- Created with Inkscape (http://www.inkscape.org/) -->

<svg
   xmlns:dc="http://purl.org/dc/elements/1.1/"
   xmlns:cc="http://creativecommons.org/ns#"
   xmlns:rdf="http://www.w3.org/1999/02/22-rdf-syntax-ns#"
   xmlns:svg="http://www.w3.org/2000/svg"
   xmlns="http://www.w3.org/2000/svg"
   xmlns:sodipodi="http://sodipodi.sourceforge.net/DTD/sodipodi-0.dtd"
   xmlns:inkscape="http://www.inkscape.org/namespaces/inkscape"
   version="1.1"
   id="svg2"
   width="512"
   height="512"
   viewBox="0 0 512 512"
   sodipodi:docname="logo.svg"
   inkscape:version="0.92.4 (5da689c313, 2019-01-14)"
   inkscape:export-filename="/home/dhsrocha/Workspace/dhsrocha.github.io/assets/logo512.png"
   inkscape:export-xdpi="96"
   inkscape:export-ydpi="96">
  <metadata
     id="metadata8">
    <rdf:RDF>
      <cc:Work
         rdf:about="">
        <dc:format>image/svg+xml</dc:format>
        <dc:type
           rdf:resource="http://purl.org/dc/dcmitype/StillImage" />
        <dc:title />
      </cc:Work>
    </rdf:RDF>
  </metadata>
  <defs
     id="defs6">
    <inkscape:path-effect
       effect="lattice2"
       gridpoint0="171.00001,171"
       gridpoint1="341,171"
       gridpoint2="171.00001,341"
       gridpoint3="341,341"
       gridpoint4="213.50001,171"
       gridpoint5="298.5,171"
       gridpoint6="213.50001,341"
       gridpoint7="298.5,341"
       gridpoint8x9="256,171"
       gridpoint10x11="256,341"
       gridpoint12="171.00001,213.5"
       gridpoint13="341,213.5"
       gridpoint14="171.00001,298.5"
       gridpoint15="341,298.5"
       gridpoint16="213.50001,213.5"
       gridpoint17="298.5,213.5"
       gridpoint18="213.50001,298.5"
       gridpoint19="298.5,298.5"
       gridpoint20x21="256,213.5"
       gridpoint22x23="256,298.5"
       gridpoint24x26="171.00001,256"
       gridpoint25x27="341,256"
       gridpoint28x30="213.50001,256"
       gridpoint29x31="298.5,256"
       gridpoint32x33x34x35="256,256"
       id="path-effect874"
       is_visible="true"
       horizontal_mirror="false"
       vertical_mirror="false"
       live_update="true" />
  </defs>
  <sodipodi:namedview
     pagecolor="#ffffff"
     bordercolor="#666666"
     borderopacity="1"
     objecttolerance="10"
     gridtolerance="10"
     guidetolerance="10"
     inkscape:pageopacity="0"
     inkscape:pageshadow="2"
     inkscape:window-width="1920"
     inkscape:window-height="1019"
     id="namedview4"
     showgrid="false"
     inkscape:zoom="1.4142136"
     inkscape:cx="191.16204"
     inkscape:cy="329.541"
     inkscape:window-x="0"
     inkscape:window-y="0"
     inkscape:window-maximized="1"
     inkscape:current-layer="layer1"
     inkscape:pagecheckerboard="true"
     borderlayer="false"
     showborder="true"
     showguides="true"
     inkscape:guide-bbox="true" />
  <g
     inkscape:groupmode="layer"
     id="layer1"
     inkscape:label="FG">
    <g
       id="g1072"
       transform="translate(5.0636169e-7,-0.44999322)">
      <path
         id="path1057"
         d="m 146.95044,464.02762 -6.63034,-3.35901 2.28275,-4.36917 c 1.25549,-2.40306 2.45401,-4.56263 2.66334,-4.79904 0.34161,-0.38582 14.50474,6.17523 15.81104,7.32443 1.33986,1.1787 -3.20859,8.68108 -5.229,8.62485 -1.2471,-0.0347 -5.25111,-1.57462 -8.89779,-3.42206 z"
         style="display:inline;fill:#6f8a91;stroke-width:1.37347627"
         inkscape:connector-curvature="0" />
      <path
         sodipodi:nodetypes="ccsssscccc"
         id="path1055"
         d="m 171.17657,453.80799 c -5.43961,-1.79478 -17.01706,-6.23341 -25.72768,-9.86369 -8.71062,-3.63025 -17.11861,-6.60046 -18.68443,-6.60046 -2.3829,0 -7.15816,-6.07816 -7.15816,-9.11121 0,-1.43798 8.81189,-6.64534 12.12774,-6.64534 4.10024,0 18.41126,4.82162 39.77383,13.40047 8.83899,3.54959 14.51389,6.37034 17.21153,6.81274 4.03838,0.17995 5.96102,0.73868 7.57012,3.57693 3.1404,8.36035 2.01154,9.85002 -3.48018,10.95247 -7.02655,1.41054 -11.18273,0.92603 -21.63277,-2.52191 z"
         style="display:inline;fill:#6f8a91;stroke-width:1.41552055"
         inkscape:connector-curvature="0" />
      <path
         sodipodi:nodetypes="ccsssscccc"
         id="path1055-5"
         d="m 192.76546,407.54348 c -5.43961,-1.79478 -17.01706,-6.23341 -25.72768,-9.86369 -8.71063,-3.63025 -17.11861,-6.60047 -18.68443,-6.60047 -2.3829,0 -7.15816,-6.07815 -7.15816,-9.1112 0,-1.43799 8.81189,-6.64535 12.12774,-6.64535 4.10024,0 18.41125,4.82163 39.77382,13.40047 8.839,3.54959 14.51389,6.37034 17.21154,6.81274 4.03837,0.17995 5.96102,0.73868 7.57012,3.57693 3.1404,8.36035 2.01154,9.85001 -3.48019,10.95246 -7.02654,1.41056 -11.18272,0.92605 -21.63276,-2.52189 z"
         style="display:inline;fill:#6f8a91;stroke-width:1.41552055"
         inkscape:connector-curvature="0" />
      <path
         id="path1045"
         d="m 189.5983,376.01553 -8.23119,-4.23965 28.57865,-56.8058 c 15.71826,-31.24319 29.16502,-57.6656 29.88167,-58.71647 1.04805,-1.53677 2.81331,-1.15346 9.02127,1.95895 4.24505,2.1283 8.0259,4.15282 8.40192,4.49896 0.76664,0.70576 -57.58176,117.53077 -58.70482,117.53865 -0.39396,0.003 -4.42035,-1.90281 -8.9475,-4.23464 z"
         style="display:inline;opacity:1;vector-effect:none;fill:#535d6c;fill-opacity:1;stroke-width:1.43109596;stroke-linecap:butt;stroke-linejoin:miter;stroke-miterlimit:4;stroke-dasharray:none;stroke-dashoffset:0;stroke-opacity:1"
         inkscape:connector-curvature="0" />
      <path
         sodipodi:nodetypes="cccccccccccccc"
         inkscape:connector-curvature="0"
         id="path987"
         d="m 256,156.79729 c -49.07896,-1.1e-4 -88.86534,39.7016 -88.86523,88.67612 0.0322,22.41113 8.53851,43.60589 23.2539,59.68326 l 0.0533,0.0614 c 3.56775,-3.34585 10.31773,-9.67595 14.16861,-13.29042 -11.42037,-12.55451 -17.99144,-29.05036 -18.01683,-46.45421 -2.4e-4,-38.25054 31.07414,-69.25879 69.40625,-69.25855 38.33211,-2.4e-4 69.40649,31.00801 69.40625,69.25855 2.4e-4,38.25053 -31.07414,69.25878 -69.40625,69.25854 -1.60486,-0.003 -3.20628,-0.0615 -4.80273,-0.17541 -0.58906,4.83455 -1.52975,12.33617 -2.40821,19.28699 2.39471,0.19881 4.80046,0.30174 7.21094,0.30599 49.07896,1.1e-4 88.86534,-39.7016 88.86523,-88.67611 C 344.86534,196.49889 305.07896,156.79718 256,156.79729 Z"
         style="opacity:1;vector-effect:none;fill:#53676c;fill-opacity:1;stroke:none;stroke-width:4.93397427;stroke-linecap:butt;stroke-linejoin:miter;stroke-miterlimit:4;stroke-dasharray:none;stroke-dashoffset:0;stroke-opacity:1" />
      <path
         id="path1051"
         d="m 255.00402,443.49107 c -0.28861,-0.81959 -3.76906,-10.1301 -7.73433,-20.69002 l -7.20956,-19.19985 1.44251,-12.35212 c 0.79338,-6.79367 2.15645,-17.67652 3.02906,-24.18411 l 1.58656,-11.83199 h 12.51645 c 39.26966,0 76.90367,-23.50908 95.76855,-59.82437 8.4604,-16.28647 11.92399,-30.48324 12.04606,-49.37501 0.12292,-19.03099 -2.79923,-32.04259 -11.06696,-49.27757 -32.74423,-68.25888 -124.00276,-83.72057 -177.57842,-30.0866 -22.67613,22.70083 -33.47954,51.34799 -31.87082,84.51121 1.14042,23.50943 8.42285,43.14799 23.22794,62.63897 l 5.03734,6.6317 -17.55318,16.46145 -17.55319,16.46143 -20.0567,5.95538 c -11.03118,3.27545 -20.795816,5.95249 -21.699188,5.94902 -0.903371,-0.003 -4.669895,-4.86891 -8.370052,-10.81202 -7.877733,-12.65306 -8.632201,-10.10704 9.13331,-30.82119 6.41009,-7.47399 11.46285,-14.23446 11.22836,-15.02327 -5.59255,-18.81284 -9.16829,-27.96651 -10.924713,-27.96651 -1.138216,0 -10.655462,-2.05562 -21.149436,-4.56806 -13.335249,-3.19268 -19.268808,-5.24377 -19.7072,-6.81235 -0.344987,-1.23437 -0.834059,-7.31644 -1.086827,-13.51574 l -0.459583,-11.27139 19.91682,-7.37295 c 10.95425,-4.0551 20.389416,-8.34098 20.967033,-9.52419 0.577617,-1.18319 2.187547,-8.2636 3.577616,-15.73423 l 2.52741,-13.58294 -16.118696,-15.20129 -16.118699,-15.20131 5.891993,-11.73134 c 3.240595,-6.45224 6.690647,-11.71968 7.66678,-11.7054 0.976133,0.0144 10.752007,1.58425 21.724162,3.48882 l 19.94939,3.46285 9.41935,-10.11192 c 5.18064,-5.56156 9.95047,-11.21228 10.59961,-12.55717 0.77005,-1.59537 -0.84822,-9.16941 -4.65601,-21.79189 -3.20996,-10.640641 -5.82795,-19.951541 -5.81777,-20.690882 0.0102,-0.739342 4.9073,-4.528686 10.88252,-8.420763 7.6011,-4.951131 11.42953,-6.67411 12.7469,-5.73672 1.03558,0.736879 8.75187,7.057947 17.1473,14.046817 l 15.26445,12.707032 8.14383,-2.922213 c 4.47912,-1.607219 10.88375,-3.639318 14.23249,-4.515777 3.34875,-0.876457 6.08201,-2.375412 6.07392,-3.331008 -0.008,-0.955595 2.07781,-10.551669 4.63538,-21.324606 l 4.65012,-19.587164 5.03481,-0.834125 c 2.76914,-0.458769 8.92067,-0.841227 13.67006,-0.849909 l 8.63527,-0.01579 4.85331,13.266169 c 2.66931,7.296393 6.25246,16.494848 7.96255,20.441011 l 3.10923,7.174841 15.03963,2.674864 15.03964,2.674865 12.0575,-12.601498 c 6.63162,-6.930822 13.18569,-13.783371 14.56459,-15.227884 3.34988,-3.509287 3.98835,-3.414522 16.25452,2.412611 12.30492,5.84555 11.86347,4.295101 7.72012,27.114494 -4.14996,22.855775 -4.49434,21.564035 8.7691,32.892245 13.15057,11.23181 8.6575,10.94268 37.63251,2.42182 8.56817,-2.51969 16.05907,-4.04825 16.64641,-3.3968 0.58736,0.65144 4.03617,5.67001 7.66403,11.15236 5.58146,8.43455 6.31007,10.30978 4.73662,12.19052 -1.02271,1.22246 -7.37808,8.77724 -14.12305,16.78843 l -12.26358,14.56578 4.71706,14.10153 4.71708,14.10153 21.26267,5.05703 21.2627,5.05701 1.10032,12.1433 c 0.60519,6.67879 0.81149,12.89681 0.45847,13.81779 -0.35304,0.92098 -3.10456,2.47385 -6.11451,3.45083 -3.00995,0.97695 -11.97126,4.27435 -19.91402,7.32754 l -14.4414,5.55122 -3.25071,15.40518 -3.25072,15.40516 16.05232,15.14867 16.05231,15.14865 -5.89745,11.74223 c -3.2436,6.45822 -6.69612,11.73478 -7.67225,11.72569 -0.97612,-0.008 -10.8003,-1.56473 -21.83148,-3.45697 l -20.0567,-3.44037 -3.54936,4.53256 c -1.95214,2.49292 -6.65797,7.85561 -10.45738,11.91711 l -6.90805,7.38451 5.80137,19.41404 c 3.19076,10.67774 5.80139,20.32899 5.80139,21.44723 0,2.07039 -18.70673,15.36162 -21.62069,15.36162 -0.8791,0 -7.81713,-5.26846 -15.41785,-11.7077 -7.60074,-6.43923 -14.8204,-12.55505 -16.04369,-13.59069 -1.86504,-1.57894 -4.47393,-1.14112 -16.15701,2.71139 -15.93006,5.25297 -13.74532,1.95193 -20.40969,30.83787 -4.21904,18.28694 -2.88969,17.12313 -20.46569,17.91701 -6.43077,0.29048 -10.75225,-0.10512 -11.07219,-1.01373 z"
         style="display:inline;fill:#53676c;stroke-width:1.43340063"
         inkscape:connector-curvature="0" />
      <g
         transform="matrix(1,0,0,1.0010885,1.0063617e-6,-9.0329422)"
         id="g871" />
      <path
         sodipodi:nodetypes="ccsssscccc"
         id="path1055-3"
         d="m 182.95724,430.67573 c -5.43962,-1.79477 -17.01707,-6.23342 -25.72768,-9.8637 -8.71063,-3.63023 -17.11862,-6.60046 -18.68443,-6.60046 -2.38291,0 -7.15817,-6.07816 -7.15817,-9.1112 0,-1.43799 8.81189,-6.64535 12.12774,-6.64535 4.10025,0 18.41126,4.82162 39.77383,13.40048 8.83899,3.54959 14.51389,6.37034 17.21153,6.81274 4.03838,0.17994 5.96102,0.73867 7.57012,3.57693 3.1404,8.36035 2.01154,9.85001 -3.48018,10.95246 -7.02654,1.41055 -11.18273,0.92604 -21.63276,-2.5219 z"
         style="display:inline;fill:#6f8a91;stroke-width:1.41552055"
         inkscape:connector-curvature="0" />
    </g>
  </g>
</svg>
