<?xml version="1.0" encoding="UTF-8" standalone="no"?>
<!-- Created with Inkscape (http://www.inkscape.org/) -->

<svg
   xmlns:dc="http://purl.org/dc/elements/1.1/"
   xmlns:cc="http://creativecommons.org/ns#"
   xmlns:rdf="http://www.w3.org/1999/02/22-rdf-syntax-ns#"
   xmlns:svg="http://www.w3.org/2000/svg"
   xmlns="http://www.w3.org/2000/svg"
   xmlns:sodipodi="http://sodipodi.sourceforge.net/DTD/sodipodi-0.dtd"
   xmlns:inkscape="http://www.inkscape.org/namespaces/inkscape"
   version="1.1"
   id="svg2"
   width="1024"
   height="1024"
   viewBox="0 0 1024 1024"
   sodipodi:docname="logo.svg"
   inkscape:version="0.92.4 (5da689c313, 2019-01-14)"
   inkscape:export-xdpi="96"
   inkscape:export-ydpi="96"
   inkscape:export-filename="/home/dhsrocha/Workspace/dhsrocha.github.io/assets/logo1024.png">
  <metadata
     id="metadata8">
    <rdf:RDF>
      <cc:Work
         rdf:about="">
        <dc:format>image/svg+xml</dc:format>
        <dc:type
           rdf:resource="http://purl.org/dc/dcmitype/StillImage" />
        <dc:title />
      </cc:Work>
    </rdf:RDF>
  </metadata>
  <defs
     id="defs6">
    <marker
       inkscape:stockid="Arrow1Send"
       orient="auto"
       refY="0.0"
       refX="0.0"
       id="Arrow1Send"
       style="overflow:visible;"
       inkscape:isstock="true">
      <path
         id="path891"
         d="M 0.0,0.0 L 5.0,-5.0 L -12.5,0.0 L 5.0,5.0 L 0.0,0.0 z "
         style="fill-rule:evenodd;stroke:#6f8a91;stroke-width:1pt;stroke-opacity:1;fill:#000000;fill-opacity:0"
         transform="scale(0.2) rotate(180) translate(6,0)" />
    </marker>
    <inkscape:path-effect
       effect="lattice2"
       gridpoint0="171.00001,171"
       gridpoint1="341,171"
       gridpoint2="171.00001,341"
       gridpoint3="341,341"
       gridpoint4="213.50001,171"
       gridpoint5="298.5,171"
       gridpoint6="213.50001,341"
       gridpoint7="298.5,341"
       gridpoint8x9="256,171"
       gridpoint10x11="256,341"
       gridpoint12="171.00001,213.5"
       gridpoint13="341,213.5"
       gridpoint14="171.00001,298.5"
       gridpoint15="341,298.5"
       gridpoint16="213.50001,213.5"
       gridpoint17="298.5,213.5"
       gridpoint18="213.50001,298.5"
       gridpoint19="298.5,298.5"
       gridpoint20x21="256,213.5"
       gridpoint22x23="256,298.5"
       gridpoint24x26="171.00001,256"
       gridpoint25x27="341,256"
       gridpoint28x30="213.50001,256"
       gridpoint29x31="298.5,256"
       gridpoint32x33x34x35="256,256"
       id="path-effect874"
       is_visible="true"
       horizontal_mirror="false"
       vertical_mirror="false"
       live_update="true" />
  </defs>
  <sodipodi:namedview
     pagecolor="#ffffff"
     bordercolor="#666666"
     borderopacity="1"
     objecttolerance="10"
     gridtolerance="10"
     guidetolerance="10"
     inkscape:pageopacity="0"
     inkscape:pageshadow="2"
     inkscape:window-width="1920"
     inkscape:window-height="1023"
     id="namedview4"
     showgrid="false"
     inkscape:zoom="0.7071068"
     inkscape:cx="360.56445"
     inkscape:cy="607.06576"
     inkscape:window-x="0"
     inkscape:window-y="0"
     inkscape:window-maximized="1"
     inkscape:current-layer="layer1"
     inkscape:pagecheckerboard="true"
     borderlayer="false"
     showborder="true"
     showguides="true"
     inkscape:guide-bbox="true" />
  <g
     inkscape:groupmode="layer"
     id="layer2"
     inkscape:label="BG"
     sodipodi:insensitive="true">
    <rect
       style="opacity:1;vector-effect:none;fill:#e7e7e7;fill-opacity:1;stroke:none;stroke-width:2.71762753;stroke-linecap:butt;stroke-linejoin:miter;stroke-miterlimit:4;stroke-dasharray:none;stroke-dashoffset:0;stroke-opacity:1"
       id="rect990"
       width="900"
       height="900"
       x="62"
       y="62"
       ry="187.82608" />
  </g>
  <g
     inkscape:groupmode="layer"
     id="layer1"
     inkscape:label="FG"
     transform="translate(0,512)"
     style="display:inline">
    <path
       style="display:inline;opacity:1;vector-effect:none;fill:#4d4d4d;fill-opacity:1;stroke-width:2.86219192;stroke-linecap:butt;stroke-linejoin:miter;stroke-miterlimit:4;stroke-dasharray:none;stroke-dashoffset:0;stroke-opacity:1"
       d="m 451.65625,114.30049 c -34.25268,57.21167 -55.2628,92.65104 -86.01953,145.31445 6.24734,2.57786 28.60316,9.39016 36.39062,12.57422 18.99701,-45.86362 30.13285,-69.81171 64.95704,-150.27148 a 127.72806,127.72806 0 0 1 -1.14649,-0.41797 127.72806,127.72806 0 0 1 -11.49609,-5.55274 127.72806,127.72806 0 0 1 -2.68555,-1.64648 z"
       id="path93-7"
       inkscape:connector-curvature="0" />
    <path
       style="opacity:1;vector-effect:none;fill:#4d4d4d;fill-opacity:1;stroke:none;stroke-width:9.08274937;stroke-linecap:butt;stroke-linejoin:miter;stroke-miterlimit:4;stroke-dasharray:none;stroke-dashoffset:0;stroke-opacity:1"
       d="m 516,-158.34209 c -90.34742,-2e-4 -163.58852,73.08504 -163.58832,163.2402 0.0592,41.25572 15.71818,80.27228 42.80714,109.86844 l 0.0982,0.113 c 6.56772,-6.15924 18.99348,-17.81206 26.0824,-24.4658 -21.02328,-23.11106 -33.1197,-53.4776 -33.16644,-85.51562 -4.4e-4,-70.41384 57.2031,-127.49564 127.7671,-127.4952 70.564,-4.4e-4 127.76754,57.08136 127.7671,127.4952 4.4e-4,70.41382 -57.2031,127.49562 -127.7671,127.49518 -2.95432,-0.006 -5.9023,-0.1132 -8.84114,-0.3229 -1.08438,8.89972 -2.81606,22.70914 -4.43318,35.50462 4.40832,0.36598 8.83696,0.55546 13.27432,0.56328 90.34742,2e-4 163.58852,-73.08504 163.58832,-163.24018 2e-4,-90.15522 -73.2409,-163.24046 -163.58832,-163.24026 z"
       id="path987-5"
       inkscape:connector-curvature="0"
       sodipodi:nodetypes="cccccccccccccc" />
    <path
       inkscape:connector-curvature="0"
       style="display:inline;fill:#4d4d4d;stroke-width:2.86680126"
       d="m 514.00804,400.93343 c -0.57722,-1.63918 -7.53812,-20.2602 -15.46866,-41.38004 l -14.41912,-38.3997 2.88502,-24.70424 c 1.58676,-13.58734 4.3129,-35.35304 6.05812,-48.36822 l 3.17312,-23.66398 h 25.0329 c 78.53932,0 153.80734,-47.01816 191.5371,-119.64874 16.9208,-32.57294 23.84798,-60.96648 24.09212,-98.75002 0.24584,-38.06198 -5.59846,-64.08518 -22.13392,-98.55514 -65.48846,-136.51776 -248.00552,-167.44114 -355.15684,-60.1732 -45.35226,45.40166 -66.95908,102.69598 -63.74164,169.02242 2.28084,47.01886 16.8457,86.29598 46.45588,125.27794 l 10.07468,13.2634 -35.10636,32.9229 -35.10638,32.92286 -40.1134,11.91076 c -22.06236,6.5509 -41.59163,11.90498 -43.39837,11.89804 -1.80675,-0.006 -9.33979,-9.73782 -16.74011,-21.62404 -15.75546,-25.30612 -17.2644,-20.21408 18.26662,-61.64238 12.82018,-14.94798 22.9257,-28.46892 22.45672,-30.04654 -11.1851,-37.62568 -18.33658,-55.93302 -21.84942,-55.93302 -2.27644,0 -21.31093,-4.11124 -42.29888,-9.13612 -26.67049,-6.38536 -38.53761,-10.48754 -39.4144,-13.6247 -0.68997,-2.46874 -1.66811,-14.63288 -2.17365,-27.03148 L 116,2.92741 l 39.83364,-14.7459 c 21.9085,-8.1102 40.77884,-16.68196 41.93407,-19.04838 1.15523,-2.36638 4.37509,-16.5272 7.15523,-31.46846 l 5.05482,-27.16588 -32.23739,-30.40258 -32.2374,-30.40262 11.78399,-23.46268 c 6.48119,-12.90448 13.38129,-23.43936 15.33356,-23.4108 1.95226,0.0288 21.50401,3.1685 43.44832,6.97764 l 39.89878,6.9257 18.8387,-20.22384 c 10.36128,-11.12312 19.90094,-22.42456 21.19922,-25.11434 1.5401,-3.19074 -1.69644,-18.33882 -9.31202,-43.58378 -6.41992,-21.28129 -11.6559,-39.90309 -11.63554,-41.38177 0.0204,-1.47868 9.8146,-9.05737 21.76504,-16.84153 15.2022,-9.90226 22.85906,-13.34822 25.4938,-11.47344 2.07116,1.47376 17.50374,14.1159 34.2946,28.09364 l 30.5289,25.41406 16.28766,-5.84442 c 8.95824,-3.21444 21.7675,-7.27864 28.46498,-9.03156 6.6975,-1.75291 12.16402,-4.75082 12.14784,-6.66201 -0.016,-1.91119 4.15562,-21.10334 9.27076,-42.64922 l 9.30024,-39.17432 10.06962,-1.66825 c 5.53828,-0.91754 17.84134,-1.68246 27.34012,-1.69982 l 17.27054,-0.0316 9.70662,26.53234 c 5.33862,14.59278 12.50492,32.98969 15.9251,40.88202 l 6.21846,14.34968 30.07926,5.34973 30.07928,5.34973 24.115,-25.203 c 13.26324,-13.86164 26.37138,-27.56674 29.12918,-30.45577 6.69976,-7.01857 7.9767,-6.82904 32.50904,4.82523 24.60984,11.6911 23.72694,8.5902 15.44024,54.22898 -8.29992,45.71156 -8.98868,43.12808 17.5382,65.7845 26.30114,22.46362 17.315,21.88536 75.26502,4.84364 17.13634,-5.03938 32.11814,-8.0965 33.29282,-6.7936 1.17472,1.30288 8.07234,11.34002 15.32806,22.30472 11.16292,16.8691 12.62014,20.61956 9.47324,24.38104 -2.04542,2.44492 -14.75616,17.55448 -28.2461,33.57686 l -24.52716,29.13156 9.43412,28.20306 9.43416,28.20306 42.52534,10.11406 42.5254,10.11402 2.20064,24.2866 c 1.21038,13.35758 1.62298,25.79362 0.91694,27.63558 -0.70608,1.84196 -6.20912,4.9477 -12.22902,6.90166 -6.0199,1.9539 -23.94252,8.5487 -39.82804,14.65508 l -28.8828,11.10244 -6.50142,30.81036 -6.50144,30.81032 32.10464,30.29734 32.10462,30.2973 -11.7949,23.48446 c -6.4872,12.91644 -13.39224,23.46956 -15.3445,23.45138 -1.95224,-0.016 -21.6006,-3.12946 -43.66296,-6.91394 l -40.1134,-6.88074 -7.09872,9.06512 c -3.90428,4.98584 -13.31594,15.71122 -20.91476,23.83422 l -13.8161,14.76902 11.60274,38.82808 c 6.38152,21.35548 11.60278,40.65798 11.60278,42.89446 0,4.14078 -37.41346,30.72324 -43.24138,30.72324 -1.7582,0 -15.63426,-10.53692 -30.8357,-23.4154 -15.20148,-12.87846 -29.6408,-25.1101 -32.08738,-27.18138 -3.73008,-3.15788 -8.94786,-2.28224 -32.31402,5.42278 -31.86012,10.50594 -27.49064,3.90386 -40.81938,61.67574 -8.43808,36.57388 -5.77938,34.24626 -40.93138,35.83402 -12.86154,0.58096 -21.5045,-0.21024 -22.14438,-2.02746 z"
       id="path1051-3" />
    <g
       style="display:inline"
       id="g1272"
       transform="translate(0,22.85127)">
      <path
         inkscape:connector-curvature="0"
         id="path93"
         d="m 447.65625,87.44922 c -34.25268,57.21167 -55.2628,92.65104 -86.01953,145.31445 6.24734,2.57786 28.60316,9.39016 36.39062,12.57422 18.99701,-45.86362 30.13285,-69.81171 64.95704,-150.27148 a 127.72806,127.72806 0 0 1 -1.14649,-0.41797 127.72806,127.72806 0 0 1 -11.49609,-5.55274 127.72806,127.72806 0 0 1 -2.68555,-1.64648 z"
         style="display:inline;opacity:1;vector-effect:none;fill:#535d6c;fill-opacity:1;stroke-width:2.86219192;stroke-linecap:butt;stroke-linejoin:miter;stroke-miterlimit:4;stroke-dasharray:none;stroke-dashoffset:0;stroke-opacity:1" />
      <path
         sodipodi:nodetypes="cccccccccccccc"
         inkscape:connector-curvature="0"
         id="path987"
         d="m 512,-185.19336 c -90.34742,-2e-4 -163.58852,73.08504 -163.58832,163.2402 0.0592,41.25572 15.71818,80.27228 42.80714,109.86844 l 0.0982,0.113 c 6.56772,-6.15924 18.99348,-17.81206 26.0824,-24.4658 -21.02328,-23.11106 -33.1197,-53.4776 -33.16644,-85.51562 -4.4e-4,-70.41384 57.2031,-127.49564 127.7671,-127.4952 70.564,-4.4e-4 127.76754,57.08136 127.7671,127.4952 4.4e-4,70.41382 -57.2031,127.49562 -127.7671,127.49518 -2.95432,-0.006 -5.9023,-0.1132 -8.84114,-0.3229 -1.08438,8.89972 -2.81606,22.70914 -4.43318,35.50462 4.40832,0.36598 8.83696,0.55546 13.27432,0.56328 90.34742,2e-4 163.58852,-73.08504 163.58832,-163.24018 2e-4,-90.15522 -73.2409,-163.24046 -163.58832,-163.24026 z"
         style="opacity:1;vector-effect:none;fill:#53676c;fill-opacity:1;stroke:none;stroke-width:9.08274937;stroke-linecap:butt;stroke-linejoin:miter;stroke-miterlimit:4;stroke-dasharray:none;stroke-dashoffset:0;stroke-opacity:1" />
      <path
         id="path1051"
         d="m 510.00804,374.08216 c -0.57722,-1.63918 -7.53812,-20.2602 -15.46866,-41.38004 l -14.41912,-38.3997 2.88502,-24.70424 c 1.58676,-13.58734 4.3129,-35.35304 6.05812,-48.36822 l 3.17312,-23.66398 h 25.0329 c 78.53932,0 153.80734,-47.01816 191.5371,-119.64874 16.9208,-32.57294 23.84798,-60.96648 24.09212,-98.75002 0.24584,-38.06198 -5.59846,-64.08518 -22.13392,-98.55514 -65.48846,-136.51776 -248.00552,-167.44114 -355.15684,-60.1732 -45.35226,45.40166 -66.95908,102.69598 -63.74164,169.02242 2.28084,47.01886 16.8457,86.29598 46.45588,125.27794 l 10.07468,13.2634 -35.10636,32.9229 -35.10638,32.92286 -40.1134,11.91076 c -22.06236,6.5509 -41.59163,11.90498 -43.39837,11.89804 -1.80675,-0.006 -9.33979,-9.73782 -16.74011,-21.62404 -15.75546,-25.30612 -17.2644,-20.21408 18.26662,-61.64238 12.82018,-14.94798 22.9257,-28.46892 22.45672,-30.04654 -11.1851,-37.62568 -18.33658,-55.93302 -21.84942,-55.93302 -2.27644,0 -21.31093,-4.11124 -42.29888,-9.13612 -26.67049,-6.38536 -38.53761,-10.48754 -39.4144,-13.6247 -0.68997,-2.46874 -1.66811,-14.63288 -2.17365,-27.03148 L 112,-23.92386 l 39.83364,-14.7459 c 21.9085,-8.1102 40.77884,-16.68196 41.93407,-19.04838 1.15523,-2.36638 4.37509,-16.5272 7.15523,-31.46846 l 5.05482,-27.16588 -32.23739,-30.40258 -32.2374,-30.40262 11.78399,-23.46268 c 6.48119,-12.90448 13.38129,-23.43936 15.33356,-23.4108 1.95226,0.0288 21.50401,3.1685 43.44832,6.97764 l 39.89878,6.9257 18.8387,-20.22384 c 10.36128,-11.12312 19.90094,-22.42456 21.19922,-25.11434 1.5401,-3.19074 -1.69644,-18.33882 -9.31202,-43.58378 -6.41992,-21.28129 -11.6559,-39.90309 -11.63554,-41.38177 0.0204,-1.47868 9.8146,-9.05737 21.76504,-16.84153 15.2022,-9.90226 22.85906,-13.34822 25.4938,-11.47344 2.07116,1.47376 17.50374,14.1159 34.2946,28.09364 l 30.5289,25.41406 16.28766,-5.84442 c 8.95824,-3.21444 21.7675,-7.27864 28.46498,-9.03156 6.6975,-1.75291 12.16402,-4.75082 12.14784,-6.66201 -0.016,-1.91119 4.15562,-21.10334 9.27076,-42.64922 l 9.30024,-39.17432 10.06962,-1.66825 c 5.53828,-0.91754 17.84134,-1.68246 27.34012,-1.69982 l 17.27054,-0.0316 9.70662,26.53234 c 5.33862,14.59278 12.50492,32.98969 15.9251,40.88202 l 6.21846,14.34968 30.07926,5.34973 30.07928,5.34973 24.115,-25.203 c 13.26324,-13.86164 26.37138,-27.56674 29.12918,-30.45577 6.69976,-7.01857 7.9767,-6.82904 32.50904,4.82523 24.60984,11.6911 23.72694,8.5902 15.44024,54.22898 -8.29992,45.71156 -8.98868,43.12808 17.5382,65.7845 26.30114,22.46362 17.315,21.88536 75.26502,4.84364 17.13634,-5.03938 32.11814,-8.0965 33.29282,-6.7936 1.17472,1.30288 8.07234,11.34002 15.32806,22.30472 11.16292,16.8691 12.62014,20.61956 9.47324,24.38104 -2.04542,2.44492 -14.75616,17.55448 -28.2461,33.57686 l -24.52716,29.13156 9.43412,28.20306 9.43416,28.20306 42.52534,10.11406 42.5254,10.11402 2.20064,24.2866 c 1.21038,13.35758 1.62298,25.79362 0.91694,27.63558 -0.70608,1.84196 -6.20912,4.9477 -12.22902,6.90166 -6.0199,1.9539 -23.94252,8.5487 -39.82804,14.65508 l -28.8828,11.10244 -6.50142,30.81036 -6.50144,30.81032 32.10464,30.29734 32.10462,30.2973 -11.7949,23.48446 c -6.4872,12.91644 -13.39224,23.46956 -15.3445,23.45138 -1.95224,-0.016 -21.6006,-3.12946 -43.66296,-6.91394 l -40.1134,-6.88074 -7.09872,9.06512 c -3.90428,4.98584 -13.31594,15.71122 -20.91476,23.83422 l -13.8161,14.76902 11.60274,38.82808 c 6.38152,21.35548 11.60278,40.65798 11.60278,42.89446 0,4.14078 -37.41346,30.72324 -43.24138,30.72324 -1.7582,0 -15.63426,-10.53692 -30.8357,-23.4154 -15.20148,-12.87846 -29.6408,-25.1101 -32.08738,-27.18138 -3.73008,-3.15788 -8.94786,-2.28224 -32.31402,5.42278 -31.86012,10.50594 -27.49064,3.90386 -40.81938,61.67574 -8.43808,36.57388 -5.77938,34.24626 -40.93138,35.83402 -12.86154,0.58096 -21.5045,-0.21024 -22.14438,-2.02746 z"
         style="display:inline;fill:#53676c;stroke-width:2.86680126"
         inkscape:connector-curvature="0" />
      <path
         sodipodi:nodetypes="cac"
         inkscape:connector-curvature="0"
         id="path69"
         d="m 296.45942,241.2455 c 11.65875,22.3406 33.31668,32.86989 54.53638,41.12018 22.46517,8.73453 47.74123,11.25623 71.98027,6.90098"
         style="fill:#000000;fill-opacity:0;stroke:#6f8a91;stroke-width:35;stroke-linecap:round;stroke-linejoin:round;stroke-miterlimit:4;stroke-dasharray:none;stroke-opacity:1" />
      <path
         sodipodi:nodetypes="cac"
         inkscape:connector-curvature="0"
         id="path69-3"
         d="m 271.98192,296.86676 c 11.81542,22.25813 33.54681,32.63498 54.82395,40.73598 22.52599,8.57647 47.81914,10.92051 72.02699,6.39505"
         style="display:inline;fill:#000000;fill-opacity:0;stroke:#6f8a91;stroke-width:35;stroke-linecap:round;stroke-linejoin:round;stroke-miterlimit:4;stroke-dasharray:none;stroke-opacity:1" />
    </g>
  </g>
</svg>
